<svg width="90" height="93" xmlns="http://www.w3.org/2000/svg"><path fill="#fff" d="M12.688 3a3 3 0 0 0-2.687 3v74a3 3 0 0 0 3 3h30a3 3 0 1 0 0-6h-27V9h48v44.938A20.133 20.133 0 0 0 52.688 63H23.001a3 3 0 0 0-.313 0 3.004 3.004 0 1 0 .313 6h27.405A20.02 20.02 0 0 0 50 73c0 11.01 8.99 20 20 20s20-8.99 20-20-8.99-20-20-20V6a3 3 0 0 0-3-3H13a3 3 0 0 0-.313 0h.001zm9.999 15A3.004 3.004 0 1 0 23 24h34a3 3 0 1 0 0-6H23a3 3 0 0 0-.313 0zm0 15A3.004 3.004 0 1 0 23 39h34a3 3 0 1 0 0-6H23a3 3 0 0 0-.313 0zm0 15A3.004 3.004 0 1 0 23 54h34a3 3 0 1 0 0-6H23a3 3 0 0 0-.313 0zM70 59c7.767 0 14 6.233 14 14 0 7.768-6.233 14-14 14-7.768 0-14-6.232-14-14 0-7.767 6.232-14 14-14zm5.812 5.97a3 3 0 0 0-2.03 1l-7.876 8.686-1.78-1.78a3 3 0 1 0-4.25 4.218l4 4A3 3 0 0 0 68.219 81l10-11a3 3 0 0 0-2.406-5.03h-.001z"/></svg>